0
SECTION
2
ENTITIES
0
CIRCLE
8
Cmts
62
1
10
170.85
20
-139.55
40
2.7
0
CIRCLE
8
FCrtYd
62
7
10
170.85
20
-139.55
40
2.95
0
LINE
8
Cmts
62
1
10
137.882
20
-126.4046
11
138.009
21
-126.1506
0
LINE
8
Cmts
62
1
10
145.883
20
-128.393
11
145.883
21
-127.123
0
LINE
8
Cmts
62
1
10
137.882
20
-126.4046
11
137.755
21
-126.1506
0
LINE
8
Cmts
62
1
10
142.5
20
-131.383
11
143.77
21
-131.383
0
LINE
8
Cmts
62
1
10
138.009
20
-129.2494
11
137.755
21
-129.2494
0
LINE
8
Cmts
62
1
10
142.5
20
-128.843
11
148.169
21
-128.843
0
LINE
8
Cmts
62
1
10
137.882
20
-126.4046
11
137.882
21
-125.1346
0
LINE
8
Cmts
62
1
10
142.5
20
-131.383
11
142.754
21
-131.256
0
LINE
8
Cmts
62
1
10
147.915
20
-129.097
11
147.661
21
-129.097
0
LINE
8
Cmts
62
1
10
143.7494
20
-123.255
11
143.7494
21
-123.509
0
LINE
8
Cmts
62
1
10
140.9046
20
-123.382
11
140.6506
21
-123.255
0
LINE
8
Cmts
62
1
10
141.9
20
-128.618
11
141.9
21
-131.764
0
LINE
8
Cmts
62
1
10
143.597
20
-133.161
11
143.597
21
-133.415
0
LINE
8
Cmts
62
1
10
141.057
20
-133.288
11
140.803
21
-133.161
0
LINE
8
Cmts
62
1
10
143.4954
20
-126.4046
11
137.501
21
-126.4046
0
LINE
8
Cmts
62
1
10
140.803
20
-133.161
11
140.803
21
-133.415
0
LINE
8
Cmts
62
1
10
141.9
20
-131.383
11
141.646
21
-131.51
0
LINE
8
Cmts
62
1
10
137.882
20
-128.9954
11
137.882
21
-130.2654
0
LINE
8
Cmts
62
1
10
143.4954
20
-123.382
11
143.7494
21
-123.255
0
LINE
8
Cmts
62
1
10
141.057
20
-128.3
11
141.057
21
-133.669
0
LINE
8
Cmts
62
1
10
138.009
20
-126.1506
11
137.755
21
-126.1506
0
LINE
8
Cmts
62
1
10
140.9046
20
-123.382
11
139.6346
21
-123.382
0
LINE
8
Cmts
62
1
10
143.4954
20
-128.9954
11
143.4954
21
-123.001
0
LINE
8
Cmts
62
1
10
147.788
20
-128.843
11
147.788
21
-130.113
0
LINE
8
Cmts
62
1
10
140.6506
20
-123.255
11
140.6506
21
-123.509
0
LINE
8
Cmts
62
1
10
143.4954
20
-123.382
11
143.7494
21
-123.509
0
LINE
8
Cmts
62
1
10
137.882
20
-128.9954
11
137.755
21
-129.2494
0
LINE
8
Cmts
62
1
10
141.057
20
-133.288
11
140.803
21
-133.415
0
LINE
8
Cmts
62
1
10
147.915
20
-126.303
11
147.661
21
-126.303
0
LINE
8
Cmts
62
1
10
147.788
20
-126.557
11
147.788
21
-125.287
0
LINE
8
Cmts
62
1
10
142.5
20
-128.393
11
146.264
21
-128.393
0
LINE
8
Cmts
62
1
10
142.754
20
-131.256
11
142.754
21
-131.51
0
LINE
8
Cmts
62
1
10
146.01
20
-129.097
11
145.756
21
-129.097
0
LINE
8
Cmts
62
1
10
147.788
20
-128.843
11
147.661
21
-129.097
0
LINE
8
Cmts
62
1
10
143.343
20
-128.3
11
143.343
21
-133.669
0
LINE
8
Cmts
62
1
10
145.883
20
-128.843
11
146.01
21
-129.097
0
LINE
8
Cmts
62
1
10
145.883
20
-128.843
11
145.883
21
-130.113
0
LINE
8
Cmts
62
1
10
141.9
20
-131.383
11
141.646
21
-131.256
0
LINE
8
Cmts
62
1
10
145.883
20
-128.843
11
145.756
21
-129.097
0
LINE
8
Cmts
62
1
10
142.5
20
-126.557
11
148.169
21
-126.557
0
LINE
8
Cmts
62
1
10
140.9046
20
-128.9954
11
140.9046
21
-123.001
0
LINE
8
Cmts
62
1
10
146.01
20
-128.139
11
145.756
21
-128.139
0
LINE
8
Cmts
62
1
10
147.788
20
-128.843
11
147.915
21
-129.097
0
LINE
8
Cmts
62
1
10
142.5
20
-128.618
11
142.5
21
-131.764
0
LINE
8
Cmts
62
1
10
143.343
20
-133.288
11
143.597
21
-133.161
0
LINE
8
Cmts
62
1
10
141.057
20
-133.288
11
139.787
21
-133.288
0
LINE
8
Cmts
62
1
10
143.343
20
-133.288
11
143.597
21
-133.415
0
LINE
8
Cmts
62
1
10
140.9046
20
-123.382
11
140.6506
21
-123.509
0
LINE
8
Cmts
62
1
10
142.5
20
-131.383
11
142.754
21
-131.51
0
LINE
8
Cmts
62
1
10
145.883
20
-128.393
11
145.756
21
-128.139
0
LINE
8
Cmts
62
1
10
137.882
20
-128.9954
11
138.009
21
-129.2494
0
LINE
8
Cmts
62
1
10
145.883
20
-128.393
11
146.01
21
-128.139
0
LINE
8
Cmts
62
1
10
147.788
20
-126.557
11
147.661
21
-126.303
0
LINE
8
Cmts
62
1
10
143.343
20
-133.288
11
144.613
21
-133.288
0
LINE
8
Cmts
62
1
10
141.646
20
-131.256
11
141.646
21
-131.51
0
LINE
8
Cmts
62
1
10
143.4954
20
-128.9954
11
137.501
21
-128.9954
0
LINE
8
Cmts
62
1
10
142.5
20
-128.843
11
146.264
21
-128.843
0
LINE
8
Cmts
62
1
10
143.4954
20
-123.382
11
144.7654
21
-123.382
0
LINE
8
Cmts
62
1
10
141.9
20
-131.383
11
140.63
21
-131.383
0
LINE
8
Cmts
62
1
10
147.788
20
-126.557
11
147.915
21
-126.303
0
LINE
8
FCrtYd
62
7
10
143.7494
20
-128.7064
11
143.7494
21
-129.2494
0
LINE
8
FCrtYd
62
7
10
142.9064
20
-129.2494
11
141.4936
21
-129.2494
0
LINE
8
FCrtYd
62
7
10
140.6506
20
-126.1506
11
141.4936
21
-126.1506
0
LINE
8
FCrtYd
62
7
10
143.7494
20
-128.7064
11
143.7494
21
-128.7064
0
LINE
8
FCrtYd
62
7
10
140.6506
20
-128.7064
11
140.6506
21
-126.6936
0
LINE
8
FCrtYd
62
7
10
141.4936
20
-129.2494
11
140.6506
21
-129.2494
0
LINE
8
FCrtYd
62
7
10
143.7494
20
-126.6936
11
143.7494
21
-128.7064
0
LINE
8
FCrtYd
62
7
10
143.7494
20
-128.7064
11
143.7494
21
-128.7064
0
LINE
8
FCrtYd
62
7
10
141.4936
20
-126.1506
11
141.4936
21
-126.1506
0
LINE
8
FCrtYd
62
7
10
141.4936
20
-129.2494
11
140.6506
21
-129.2494
0
LINE
8
FCrtYd
62
7
10
143.7494
20
-128.7064
11
143.7494
21
-129.2494
0
LINE
8
FCrtYd
62
7
10
140.6506
20
-128.7064
11
140.6506
21
-126.6936
0
LINE
8
FCrtYd
62
7
10
143.7494
20
-126.1506
11
143.7494
21
-126.6936
0
LINE
8
FCrtYd
62
7
10
143.7494
20
-126.1506
11
143.7494
21
-126.6936
0
LINE
8
FCrtYd
62
7
10
140.6506
20
-126.1506
11
141.4936
21
-126.1506
0
LINE
8
FCrtYd
62
7
10
140.6506
20
-128.7064
11
140.6506
21
-128.7064
0
LINE
8
FCrtYd
62
7
10
141.4936
20
-126.1506
11
142.9064
21
-126.1506
0
LINE
8
FCrtYd
62
7
10
142.9064
20
-126.1506
11
143.7494
21
-126.1506
0
LINE
8
FCrtYd
62
7
10
142.9064
20
-129.2494
11
141.4936
21
-129.2494
0
LINE
8
FCrtYd
62
7
10
141.4936
20
-126.1506
11
141.4936
21
-126.1506
0
LINE
8
FCrtYd
62
7
10
140.6506
20
-126.6936
11
140.6506
21
-126.1506
0
LINE
8
FCrtYd
62
7
10
142.9064
20
-126.1506
11
142.9064
21
-126.1506
0
LINE
8
FCrtYd
62
7
10
142.9064
20
-129.2494
11
142.9064
21
-129.2494
0
LINE
8
FCrtYd
62
7
10
141.4936
20
-126.1506
11
142.9064
21
-126.1506
0
LINE
8
FCrtYd
62
7
10
140.6506
20
-126.6936
11
140.6506
21
-126.6936
0
LINE
8
FCrtYd
62
7
10
141.4936
20
-129.2494
11
141.4936
21
-129.2494
0
LINE
8
FCrtYd
62
7
10
143.7494
20
-129.2494
11
142.9064
21
-129.2494
0
LINE
8
FCrtYd
62
7
10
143.7494
20
-126.6936
11
143.7494
21
-126.6936
0
LINE
8
FCrtYd
62
7
10
143.7494
20
-129.2494
11
142.9064
21
-129.2494
0
LINE
8
FCrtYd
62
7
10
143.7494
20
-126.6936
11
143.7494
21
-128.7064
0
LINE
8
FCrtYd
62
7
10
140.6506
20
-126.6936
11
140.6506
21
-126.6936
0
LINE
8
FCrtYd
62
7
10
141.4936
20
-129.2494
11
141.4936
21
-129.2494
0
LINE
8
FCrtYd
62
7
10
140.6506
20
-128.7064
11
140.6506
21
-128.7064
0
LINE
8
FCrtYd
62
7
10
142.9064
20
-126.1506
11
143.7494
21
-126.1506
0
LINE
8
FCrtYd
62
7
10
142.9064
20
-129.2494
11
142.9064
21
-129.2494
0
LINE
8
FCrtYd
62
7
10
142.9064
20
-126.1506
11
142.9064
21
-126.1506
0
LINE
8
FCrtYd
62
7
10
140.6506
20
-129.2494
11
140.6506
21
-128.7064
0
LINE
8
FCrtYd
62
7
10
140.6506
20
-126.6936
11
140.6506
21
-126.1506
0
LINE
8
FCrtYd
62
7
10
140.6506
20
-129.2494
11
140.6506
21
-128.7064
0
LINE
8
FCrtYd
62
7
10
143.7494
20
-126.6936
11
143.7494
21
-126.6936
0
LINE
8
FFab
62
5
10
140.9046
20
-128.1476
11
141.057
21
-128.1476
0
LINE
8
FFab
62
5
10
143.4954
20
-126.4046
11
140.9046
21
-126.4046
0
LINE
8
FFab
62
5
10
141.057
20
-128.4524
11
140.9046
21
-128.4524
0
LINE
8
FFab
62
5
10
143.4954
20
-128.1476
11
143.4954
21
-128.4524
0
LINE
8
FFab
62
5
10
143.4954
20
-128.9954
11
143.4954
21
-128.9954
0
LINE
8
FFab
62
5
10
140.9046
20
-126.4046
11
140.9046
21
-128.9954
0
LINE
8
FFab
62
5
10
142.0524
20
-126.4046
11
142.0524
21
-126.557
0
LINE
8
FFab
62
5
10
140.9046
20
-126.4046
11
140.9046
21
-126.4046
0
LINE
8
FFab
62
5
10
140.9046
20
-127.2524
11
140.9046
21
-126.9476
0
LINE
8
FFab
62
5
10
142.3476
20
-128.843
11
142.6524
21
-128.843
0
LINE
8
FFab
62
5
10
143.343
20
-127.2524
11
143.343
21
-126.9476
0
LINE
8
FFab
62
5
10
141.7476
20
-126.4046
11
142.0524
21
-126.4046
0
LINE
8
FFab
62
5
10
142.0524
20
-128.843
11
142.0524
21
-128.9954
0
LINE
8
FFab
62
5
10
143.4954
20
-128.4524
11
143.343
21
-128.4524
0
LINE
8
FFab
62
5
10
143.4954
20
-128.9954
11
143.4954
21
-126.4046
0
LINE
8
FFab
62
5
10
140.9046
20
-128.9954
11
143.4954
21
-128.9954
0
LINE
8
FFab
62
5
10
143.4954
20
-127.5476
11
143.4954
21
-127.8524
0
LINE
8
FFab
62
5
10
141.7476
20
-128.9954
11
141.7476
21
-128.843
0
LINE
8
FFab
62
5
10
142.3476
20
-128.9954
11
142.3476
21
-128.843
0
LINE
8
FFab
62
5
10
143.4954
20
-126.9476
11
143.4954
21
-127.2524
0
LINE
8
FFab
62
5
10
142.3476
20
-126.557
11
142.3476
21
-126.4046
0
LINE
8
FFab
62
5
10
142.0524
20
-128.9954
11
141.7476
21
-128.9954
0
LINE
8
FFab
62
5
10
142.6524
20
-126.4046
11
142.6524
21
-126.557
0
LINE
8
FFab
62
5
10
143.343
20
-126.9476
11
143.4954
21
-126.9476
0
LINE
8
FFab
62
5
10
143.343
20
-128.4524
11
143.343
21
-128.1476
0
LINE
8
FFab
62
5
10
142.6524
20
-126.557
11
142.3476
21
-126.557
0
LINE
8
FFab
62
5
10
143.4954
20
-127.2524
11
143.343
21
-127.2524
0
LINE
8
FFab
62
5
10
142.6524
20
-128.9954
11
142.3476
21
-128.9954
0
LINE
8
FFab
62
5
10
142.6524
20
-128.843
11
142.6524
21
-128.9954
0
LINE
8
FFab
62
5
10
141.057
20
-127.5476
11
141.057
21
-127.8524
0
LINE
8
FFab
62
5
10
140.9046
20
-128.9954
11
140.9046
21
-128.9954
0
LINE
8
FFab
62
5
10
142.3476
20
-126.4046
11
142.6524
21
-126.4046
0
LINE
8
FFab
62
5
10
142.0524
20
-126.557
11
141.7476
21
-126.557
0
LINE
8
FFab
62
5
10
141.057
20
-126.9476
11
141.057
21
-127.2524
0
LINE
8
FFab
62
5
10
141.057
20
-127.8524
11
140.9046
21
-127.8524
0
LINE
8
FFab
62
5
10
143.4954
20
-127.8524
11
143.343
21
-127.8524
0
LINE
8
FFab
62
5
10
141.7476
20
-128.843
11
142.0524
21
-128.843
0
LINE
8
FFab
62
5
10
140.9046
20
-128.4524
11
140.9046
21
-128.1476
0
LINE
8
FFab
62
5
10
140.9046
20
-127.5476
11
141.057
21
-127.5476
0
LINE
8
FFab
62
5
10
143.343
20
-128.1476
11
143.4954
21
-128.1476
0
LINE
8
FFab
62
5
10
141.057
20
-127.2524
11
140.9046
21
-127.2524
0
LINE
8
FFab
62
5
10
143.343
20
-127.8524
11
143.343
21
-127.5476
0
LINE
8
FFab
62
5
10
140.9046
20
-126.9476
11
141.057
21
-126.9476
0
LINE
8
FFab
62
5
10
143.4954
20
-126.4046
11
143.4954
21
-126.4046
0
LINE
8
FFab
62
5
10
143.343
20
-127.5476
11
143.4954
21
-127.5476
0
LINE
8
FFab
62
5
10
141.057
20
-128.1476
11
141.057
21
-128.4524
0
LINE
8
FFab
62
5
10
142.2254
20
-126.4046
11
143.4954
21
-127.6746
0
LINE
8
FFab
62
5
10
140.9046
20
-127.8524
11
140.9046
21
-127.5476
0
LINE
8
FFab
62
5
10
141.7476
20
-126.557
11
141.7476
21
-126.4046
0
LINE
8
FCrtYd
62
7
10
143.58
20
-129.37
11
143.58
21
-130.83
0
LINE
8
FCrtYd
62
7
10
143.58
20
-130.83
11
140.62
21
-130.83
0
LINE
8
FCrtYd
62
7
10
140.62
20
-129.37
11
143.58
21
-129.37
0
LINE
8
FCrtYd
62
7
10
140.62
20
-130.83
11
140.62
21
-129.37
0
LINE
8
FFab
62
5
10
142.9
20
-130.5
11
141.3
21
-130.5
0
LINE
8
FFab
62
5
10
142.9
20
-129.7
11
142.9
21
-130.5
0
LINE
8
FFab
62
5
10
141.3
20
-129.7
11
142.9
21
-129.7
0
LINE
8
FFab
62
5
10
141.3
20
-130.5
11
141.3
21
-129.7
0
CIRCLE
8
Cmts
62
1
10
168.95
20
-50.4
40
3.2
0
CIRCLE
8
FCrtYd
62
7
10
168.95
20
-50.4
40
3.45
0
CIRCLE
8
Cmts
62
1
10
109.25
20
-50.3
40
3.2
0
CIRCLE
8
FCrtYd
62
7
10
109.25
20
-50.3
40
3.45
0
LINE
8
Cmts
62
1
10
121.2573
20
-132.1624
11
121.2573
21
-132.4164
0
LINE
8
Cmts
62
1
10
115.9106
20
-129.2033
11
116.0376
21
-129.4573
0
LINE
8
Cmts
62
1
10
120.6096
20
-127.7
11
120.6096
21
-124.3646
0
LINE
8
Cmts
62
1
10
115.7836
20
-129.4573
11
116.0376
21
-129.4573
0
LINE
8
Cmts
62
1
10
118.9967
20
-132.2894
11
118.7427
21
-132.1624
0
LINE
8
Cmts
62
1
10
120.762
20
-127.7
11
123.8354
21
-127.7
0
LINE
8
Cmts
62
1
10
123.4544
20
-127.7
11
123.5814
21
-127.446
0
LINE
8
Cmts
62
1
10
125.3594
20
-127.2856
11
125.4864
21
-127.0316
0
LINE
8
Cmts
62
1
10
120.9144
20
-124.7456
11
122.1844
21
-124.7456
0
LINE
8
Cmts
62
1
10
119.0856
20
-122.8406
11
118.8316
21
-122.9676
0
LINE
8
Cmts
62
1
10
120.9144
20
-124.7456
11
121.1684
21
-124.8726
0
LINE
8
Cmts
62
1
10
119.0856
20
-122.8406
11
118.8316
21
-122.7136
0
LINE
8
Cmts
62
1
10
125.3594
20
-129.1144
11
125.2324
21
-129.3684
0
LINE
8
Cmts
62
1
10
121.0033
20
-127.1967
11
121.0033
21
-132.6704
0
LINE
8
Cmts
62
1
10
121.0033
20
-127.1967
11
115.5296
21
-127.1967
0
LINE
8
Cmts
62
1
10
118.9967
20
-127.1967
11
118.9967
21
-132.6704
0
LINE
8
Cmts
62
1
10
115.9106
20
-127.1967
11
115.7836
21
-126.9427
0
LINE
8
Cmts
62
1
10
115.9106
20
-129.2033
11
115.7836
21
-129.4573
0
LINE
8
Cmts
62
1
10
118.7427
20
-132.1624
11
118.7427
21
-132.4164
0
LINE
8
Cmts
62
1
10
115.9106
20
-129.2033
11
115.9106
21
-130.4733
0
LINE
8
Cmts
62
1
10
115.9106
20
-127.1967
11
115.9106
21
-125.9267
0
LINE
8
Cmts
62
1
10
121.1684
20
-124.6186
11
121.1684
21
-124.8726
0
LINE
8
Cmts
62
1
10
118.9967
20
-132.2894
11
118.7427
21
-132.4164
0
LINE
8
Cmts
62
1
10
120.9144
20
-127.7
11
120.9144
21
-124.3646
0
LINE
8
Cmts
62
1
10
125.2324
20
-127.0316
11
125.4864
21
-127.0316
0
LINE
8
Cmts
62
1
10
121.0033
20
-129.2033
11
115.5296
21
-129.2033
0
LINE
8
Cmts
62
1
10
120.9144
20
-124.7456
11
121.1684
21
-124.6186
0
LINE
8
Cmts
62
1
10
123.4544
20
-128.7
11
123.4544
21
-129.97
0
LINE
8
Cmts
62
1
10
123.4544
20
-127.7
11
123.3274
21
-127.446
0
LINE
8
Cmts
62
1
10
120.9144
20
-127.7
11
120.9144
21
-122.4596
0
LINE
8
Cmts
62
1
10
115.7836
20
-126.9427
11
116.0376
21
-126.9427
0
LINE
8
Cmts
62
1
10
123.3274
20
-127.446
11
123.5814
21
-127.446
0
LINE
8
Cmts
62
1
10
120.0
20
-129.1144
11
125.7404
21
-129.1144
0
LINE
8
Cmts
62
1
10
125.3594
20
-129.1144
11
125.3594
21
-130.3844
0
LINE
8
Cmts
62
1
10
120.9144
20
-122.8406
11
121.1684
21
-122.9676
0
LINE
8
Cmts
62
1
10
120.762
20
-128.7
11
123.8354
21
-128.7
0
LINE
8
Cmts
62
1
10
123.4544
20
-128.7
11
123.3274
21
-128.954
0
LINE
8
Cmts
62
1
10
121.0033
20
-132.2894
11
122.2733
21
-132.2894
0
LINE
8
Cmts
62
1
10
121.0033
20
-132.2894
11
121.2573
21
-132.1624
0
LINE
8
Cmts
62
1
10
125.2324
20
-129.3684
11
125.4864
21
-129.3684
0
LINE
8
Cmts
62
1
10
123.4544
20
-127.7
11
123.4544
21
-126.43
0
LINE
8
Cmts
62
1
10
120.6096
20
-124.7456
11
119.3396
21
-124.7456
0
LINE
8
Cmts
62
1
10
120.3556
20
-124.6186
11
120.3556
21
-124.8726
0
LINE
8
Cmts
62
1
10
125.3594
20
-129.1144
11
125.4864
21
-129.3684
0
LINE
8
Cmts
62
1
10
121.0033
20
-132.2894
11
121.2573
21
-132.4164
0
LINE
8
Cmts
62
1
10
118.8316
20
-122.7136
11
118.8316
21
-122.9676
0
LINE
8
Cmts
62
1
10
115.9106
20
-127.1967
11
116.0376
21
-126.9427
0
LINE
8
Cmts
62
1
10
121.1684
20
-122.7136
11
121.1684
21
-122.9676
0
LINE
8
Cmts
62
1
10
120.0
20
-127.2856
11
125.7404
21
-127.2856
0
LINE
8
Cmts
62
1
10
123.4544
20
-128.7
11
123.5814
21
-128.954
0
LINE
8
Cmts
62
1
10
123.3274
20
-128.954
11
123.5814
21
-128.954
0
LINE
8
Cmts
62
1
10
118.9967
20
-132.2894
11
117.7267
21
-132.2894
0
LINE
8
Cmts
62
1
10
120.9144
20
-122.8406
11
122.1844
21
-122.8406
0
LINE
8
Cmts
62
1
10
125.3594
20
-127.2856
11
125.2324
21
-127.0316
0
LINE
8
Cmts
62
1
10
125.3594
20
-127.2856
11
125.3594
21
-126.0156
0
LINE
8
Cmts
62
1
10
119.0856
20
-122.8406
11
117.8156
21
-122.8406
0
LINE
8
Cmts
62
1
10
120.6096
20
-124.7456
11
120.3556
21
-124.8726
0
LINE
8
Cmts
62
1
10
119.0856
20
-127.7
11
119.0856
21
-122.4596
0
LINE
8
Cmts
62
1
10
120.6096
20
-124.7456
11
120.3556
21
-124.6186
0
LINE
8
Cmts
62
1
10
120.9144
20
-122.8406
11
121.1684
21
-122.7136
0
LINE
8
FCrtYd
62
7
10
121.2573
20
-129.1318
11
121.2573
21
-129.4573
0
LINE
8
FCrtYd
62
7
10
121.2573
20
-127.2682
11
121.2573
21
-129.1318
0
LINE
8
FCrtYd
62
7
10
118.7427
20
-127.2682
11
118.7427
21
-126.9427
0
LINE
8
FCrtYd
62
7
10
121.2573
20
-129.1318
11
121.2573
21
-129.4573
0
LINE
8
FCrtYd
62
7
10
119.5682
20
-129.4573
11
119.5682
21
-129.4573
0
LINE
8
FCrtYd
62
7
10
121.2573
20
-129.1318
11
121.2573
21
-129.1318
0
LINE
8
FCrtYd
62
7
10
119.5682
20
-129.4573
11
118.7427
21
-129.4573
0
LINE
8
FCrtYd
62
7
10
120.4318
20
-126.9427
11
120.4318
21
-126.9427
0
LINE
8
FCrtYd
62
7
10
121.2573
20
-127.2682
11
121.2573
21
-127.2682
0
LINE
8
FCrtYd
62
7
10
118.7427
20
-126.9427
11
119.5682
21
-126.9427
0
LINE
8
FCrtYd
62
7
10
120.4318
20
-129.4573
11
120.4318
21
-129.4573
0
LINE
8
FCrtYd
62
7
10
118.7427
20
-129.1318
11
118.7427
21
-129.1318
0
LINE
8
FCrtYd
62
7
10
118.7427
20
-129.1318
11
118.7427
21
-127.2682
0
LINE
8
FCrtYd
62
7
10
119.5682
20
-129.4573
11
118.7427
21
-129.4573
0
LINE
8
FCrtYd
62
7
10
118.7427
20
-129.1318
11
118.7427
21
-127.2682
0
LINE
8
FCrtYd
62
7
10
118.7427
20
-126.9427
11
119.5682
21
-126.9427
0
LINE
8
FCrtYd
62
7
10
119.5682
20
-126.9427
11
119.5682
21
-126.9427
0
LINE
8
FCrtYd
62
7
10
121.2573
20
-127.2682
11
121.2573
21
-127.2682
0
LINE
8
FCrtYd
62
7
10
119.5682
20
-129.4573
11
119.5682
21
-129.4573
0
LINE
8
FCrtYd
62
7
10
118.7427
20
-129.1318
11
118.7427
21
-129.1318
0
LINE
8
FCrtYd
62
7
10
121.2573
20
-127.2682
11
121.2573
21
-129.1318
0
LINE
8
FCrtYd
62
7
10
118.7427
20
-127.2682
11
118.7427
21
-126.9427
0
LINE
8
FCrtYd
62
7
10
120.4318
20
-129.4573
11
119.5682
21
-129.4573
0
LINE
8
FCrtYd
62
7
10
120.4318
20
-129.4573
11
120.4318
21
-129.4573
0
LINE
8
FCrtYd
62
7
10
118.7427
20
-129.4573
11
118.7427
21
-129.1318
0
LINE
8
FCrtYd
62
7
10
120.4318
20
-126.9427
11
120.4318
21
-126.9427
0
LINE
8
FCrtYd
62
7
10
121.2573
20
-126.9427
11
121.2573
21
-127.2682
0
LINE
8
FCrtYd
62
7
10
121.2573
20
-129.4573
11
120.4318
21
-129.4573
0
LINE
8
FCrtYd
62
7
10
118.7427
20
-127.2682
11
118.7427
21
-127.2682
0
LINE
8
FCrtYd
62
7
10
119.5682
20
-126.9427
11
120.4318
21
-126.9427
0
LINE
8
FCrtYd
62
7
10
120.4318
20
-129.4573
11
119.5682
21
-129.4573
0
LINE
8
FCrtYd
62
7
10
120.4318
20
-126.9427
11
121.2573
21
-126.9427
0
LINE
8
FCrtYd
62
7
10
118.7427
20
-129.4573
11
118.7427
21
-129.1318
0
LINE
8
FCrtYd
62
7
10
120.4318
20
-126.9427
11
121.2573
21
-126.9427
0
LINE
8
FCrtYd
62
7
10
118.7427
20
-127.2682
11
118.7427
21
-127.2682
0
LINE
8
FCrtYd
62
7
10
121.2573
20
-129.1318
11
121.2573
21
-129.1318
0
LINE
8
FCrtYd
62
7
10
119.5682
20
-126.9427
11
120.4318
21
-126.9427
0
LINE
8
FCrtYd
62
7
10
119.5682
20
-126.9427
11
119.5682
21
-126.9427
0
LINE
8
FCrtYd
62
7
10
121.2573
20
-126.9427
11
121.2573
21
-127.2682
0
LINE
8
FCrtYd
62
7
10
121.2573
20
-129.4573
11
120.4318
21
-129.4573
0
LINE
8
FFab
62
5
10
118.9967
20
-127.8778
11
118.9967
21
-127.5222
0
LINE
8
FFab
62
5
10
121.0033
20
-127.1967
11
118.9967
21
-127.1967
0
LINE
8
FFab
62
5
10
121.0033
20
-127.8778
11
120.9144
21
-127.8778
0
LINE
8
FFab
62
5
10
118.9967
20
-127.1967
11
118.9967
21
-129.2033
0
LINE
8
FFab
62
5
10
119.8222
20
-129.1144
11
120.1778
21
-129.1144
0
LINE
8
FFab
62
5
10
120.1778
20
-129.1144
11
120.1778
21
-129.2033
0
LINE
8
FFab
62
5
10
120.9144
20
-127.8778
11
120.9144
21
-127.5222
0
LINE
8
FFab
62
5
10
118.9967
20
-128.4667
11
120.2667
21
-127.1967
0
LINE
8
FFab
62
5
10
118.9967
20
-129.2033
11
121.0033
21
-129.2033
0
LINE
8
FFab
62
5
10
121.0033
20
-128.8778
11
120.9144
21
-128.8778
0
LINE
8
FFab
62
5
10
119.0856
20
-127.5222
11
119.0856
21
-127.8778
0
LINE
8
FFab
62
5
10
120.9144
20
-128.8778
11
120.9144
21
-128.5222
0
LINE
8
FFab
62
5
10
119.8222
20
-127.2856
11
119.8222
21
-127.1967
0
LINE
8
FFab
62
5
10
118.9967
20
-128.8778
11
118.9967
21
-128.5222
0
LINE
8
FFab
62
5
10
121.0033
20
-128.5222
11
121.0033
21
-128.8778
0
LINE
8
FFab
62
5
10
120.1778
20
-127.1967
11
120.1778
21
-127.2856
0
LINE
8
FFab
62
5
10
120.9144
20
-128.5222
11
121.0033
21
-128.5222
0
LINE
8
FFab
62
5
10
118.9967
20
-129.2033
11
118.9967
21
-129.2033
0
LINE
8
FFab
62
5
10
119.8222
20
-129.2033
11
119.8222
21
-129.1144
0
LINE
8
FFab
62
5
10
121.0033
20
-127.5222
11
121.0033
21
-127.8778
0
LINE
8
FFab
62
5
10
120.1778
20
-129.2033
11
119.8222
21
-129.2033
0
LINE
8
FFab
62
5
10
121.0033
20
-129.2033
11
121.0033
21
-127.1967
0
LINE
8
FFab
62
5
10
119.0856
20
-128.8778
11
118.9967
21
-128.8778
0
LINE
8
FFab
62
5
10
120.1778
20
-127.2856
11
119.8222
21
-127.2856
0
LINE
8
FFab
62
5
10
119.0856
20
-127.8778
11
118.9967
21
-127.8778
0
LINE
8
FFab
62
5
10
120.9144
20
-127.5222
11
121.0033
21
-127.5222
0
LINE
8
FFab
62
5
10
119.0856
20
-128.5222
11
119.0856
21
-128.8778
0
LINE
8
FFab
62
5
10
118.9967
20
-128.5222
11
119.0856
21
-128.5222
0
LINE
8
FFab
62
5
10
121.0033
20
-127.1967
11
121.0033
21
-127.1967
0
LINE
8
FFab
62
5
10
118.9967
20
-127.1967
11
118.9967
21
-127.1967
0
LINE
8
FFab
62
5
10
119.8222
20
-127.1967
11
120.1778
21
-127.1967
0
LINE
8
FFab
62
5
10
118.9967
20
-127.5222
11
119.0856
21
-127.5222
0
LINE
8
FFab
62
5
10
121.0033
20
-129.2033
11
121.0033
21
-129.2033
0
CIRCLE
8
Cmts
62
1
10
112.8
20
-116.6
40
2.7
0
CIRCLE
8
FCrtYd
62
7
10
112.8
20
-116.6
40
2.95
0
LINE
8
FCrtYd
62
7
10
122.83
20
-130.98
11
121.37
21
-130.98
0
LINE
8
FCrtYd
62
7
10
122.83
20
-128.02
11
122.83
21
-130.98
0
LINE
8
FCrtYd
62
7
10
121.37
20
-128.02
11
122.83
21
-128.02
0
LINE
8
FCrtYd
62
7
10
121.37
20
-130.98
11
121.37
21
-128.02
0
LINE
8
FFab
62
5
10
122.5
20
-128.7
11
122.5
21
-130.3
0
LINE
8
FFab
62
5
10
121.7
20
-130.3
11
121.7
21
-128.7
0
LINE
8
FFab
62
5
10
121.7
20
-128.7
11
122.5
21
-128.7
0
LINE
8
FFab
62
5
10
122.5
20
-130.3
11
121.7
21
-130.3
0
LINE
8
FCrtYd
62
7
10
145.48
20
-129.23
11
144.02
21
-129.23
0
LINE
8
FCrtYd
62
7
10
144.02
20
-126.27
11
145.48
21
-126.27
0
LINE
8
FCrtYd
62
7
10
145.48
20
-126.27
11
145.48
21
-129.23
0
LINE
8
FCrtYd
62
7
10
144.02
20
-129.23
11
144.02
21
-126.27
0
LINE
8
FFab
62
5
10
145.15
20
-126.95
11
145.15
21
-128.55
0
LINE
8
FFab
62
5
10
145.15
20
-128.55
11
144.35
21
-128.55
0
LINE
8
FFab
62
5
10
144.35
20
-126.95
11
145.15
21
-126.95
0
LINE
8
FFab
62
5
10
144.35
20
-128.55
11
144.35
21
-126.95
0
LINE
8
FCrtYd
62
7
10
109.05
20
-112.85
11
174.55
21
-112.85
0
LINE
8
FCrtYd
62
7
10
174.55
20
-143.85
11
109.05
21
-143.85
0
LINE
8
FCrtYd
62
7
10
174.55
20
-112.85
11
174.55
21
-143.85
0
LINE
8
FCrtYd
62
7
10
109.05
20
-143.85
11
109.05
21
-112.85
0
LINE
8
FFab
62
5
10
146.2
20
-143.1
11
147.05
21
-143.1
0
LINE
8
FFab
62
5
10
159.65
20
-143.1
11
159.65
21
-137.35
0
LINE
8
FFab
62
5
10
123.65
20
-143.1
11
171.3
21
-143.1
0
LINE
8
FFab
62
5
10
159.65
20
-137.35
11
167.15
21
-137.35
0
LINE
8
FFab
62
5
10
116.4
20
-114.06
11
116.4
21
-119.14
0
LINE
8
FFab
62
5
10
174.3
20
-140.1
11
174.3
21
-116.1
0
LINE
8
FFab
62
5
10
116.15
20
-143.1
11
115.9
21
-143.6
0
LINE
8
FFab
62
5
10
158.8
20
-143.1
11
159.65
21
-143.1
0
LINE
8
FFab
62
5
10
171.3
20
-113.1
11
112.3
21
-113.1
0
LINE
8
FFab
62
5
10
147.05
20
-143.1
11
147.05
21
-137.35
0
LINE
8
FFab
62
5
10
167.15
20
-137.35
11
167.15
21
-143.1
0
LINE
8
FFab
62
5
10
146.8
20
-143.6
11
154.8
21
-143.6
0
LINE
8
FFab
62
5
10
116.15
20
-137.35
11
123.65
21
-137.35
0
LINE
8
FFab
62
5
10
159.4
20
-143.6
11
167.4
21
-143.6
0
LINE
8
FFab
62
5
10
123.9
20
-143.6
11
123.65
21
-143.1
0
LINE
8
FFab
62
5
10
147.05
20
-137.35
11
154.55
21
-137.35
0
LINE
8
FFab
62
5
10
109.3
20
-116.1
11
109.3
21
-140.1
0
LINE
8
FFab
62
5
10
147.05
20
-143.1
11
154.55
21
-143.1
0
LINE
8
FFab
62
5
10
123.65
20
-137.35
11
123.65
21
-143.1
0
LINE
8
FFab
62
5
10
147.05
20
-143.1
11
146.8
21
-143.6
0
LINE
8
FFab
62
5
10
154.8
20
-143.6
11
154.55
21
-143.1
0
LINE
8
FFab
62
5
10
115.9
20
-143.6
11
123.9
21
-143.6
0
LINE
8
FFab
62
5
10
167.2
20
-119.14
11
167.2
21
-114.06
0
LINE
8
FFab
62
5
10
159.65
20
-143.1
11
167.15
21
-143.1
0
LINE
8
FFab
62
5
10
116.15
20
-143.1
11
123.65
21
-143.1
0
LINE
8
FFab
62
5
10
116.4
20
-119.14
11
167.2
21
-119.14
0
LINE
8
FFab
62
5
10
112.3
20
-143.1
11
116.15
21
-143.1
0
LINE
8
FFab
62
5
10
116.15
20
-143.1
11
116.15
21
-137.35
0
LINE
8
FFab
62
5
10
167.4
20
-143.6
11
167.15
21
-143.1
0
LINE
8
FFab
62
5
10
154.55
20
-137.35
11
154.55
21
-143.1
0
LINE
8
FFab
62
5
10
167.2
20
-114.06
11
116.4
21
-114.06
0
LINE
8
FFab
62
5
10
159.65
20
-143.1
11
159.4
21
-143.6
0
ARC
8
FFab
62
5
10
171.3
20
-113.1
30
0
40
2.2961
50
-55.000011
51
-22.500011
0
ARC
8
FFab
62
5
10
109.3
20
-116.1
30
0
40
2.2961
50
67.499989
51
96.999989
0
ARC
8
FFab
62
5
10
112.3
20
-143.1
30
0
40
2.2961
50
157.499989
51
189.999989
0
ARC
8
FFab
62
5
10
174.3
20
-140.1
30
0
40
2.2961
50
-142.000011
51
-112.500011
0
CIRCLE
8
FFab
62
5
10
170.8
20
-139.6
40
3.1
0
CIRCLE
8
FFab
62
5
10
170.8
20
-116.6
40
3.1
0
CIRCLE
8
FFab
62
5
10
112.8
20
-139.6
40
3.1
0
CIRCLE
8
FFab
62
5
10
112.8
20
-116.6
40
3.1
0
LINE
8
FCrtYd
62
7
10
106.85
20
-121.5
11
103.3
21
-121.5
0
LINE
8
FCrtYd
62
7
10
106.85
20
-115.4
11
106.85
21
-121.5
0
LINE
8
FCrtYd
62
7
10
103.3
20
-121.5
11
103.3
21
-115.4
0
LINE
8
FCrtYd
62
7
10
103.3
20
-115.4
11
106.85
21
-115.4
0
LINE
8
FFab
62
5
10
106.37
20
-121.01
11
103.83
21
-121.01
0
LINE
8
FFab
62
5
10
106.37
20
-116.565
11
106.37
21
-121.01
0
LINE
8
FFab
62
5
10
103.83
20
-121.01
11
103.83
21
-115.93
0
LINE
8
FFab
62
5
10
105.735
20
-115.93
11
106.37
21
-116.565
0
LINE
8
FFab
62
5
10
103.83
20
-115.93
11
105.735
21
-115.93
0
CIRCLE
8
Cmts
62
1
10
128.1
20
-105.35
40
3.2
0
CIRCLE
8
FCrtYd
62
7
10
128.1
20
-105.35
40
3.45
0
CIRCLE
8
Cmts
62
1
10
170.8
20
-116.6
40
2.7
0
CIRCLE
8
FCrtYd
62
7
10
170.8
20
-116.6
40
2.95
0
CIRCLE
8
Cmts
62
1
10
112.8
20
-139.65
40
2.7
0
CIRCLE
8
FCrtYd
62
7
10
112.8
20
-139.65
40
2.95
0
LINE
8
FCrtYd
62
7
10
147.28
20
-129.23
11
145.82
21
-129.23
0
LINE
8
FCrtYd
62
7
10
147.28
20
-126.27
11
147.28
21
-129.23
0
LINE
8
FCrtYd
62
7
10
145.82
20
-129.23
11
145.82
21
-126.27
0
LINE
8
FCrtYd
62
7
10
145.82
20
-126.27
11
147.28
21
-126.27
0
LINE
8
FFab
62
5
10
146.95
20
-128.55
11
146.15
21
-128.55
0
LINE
8
FFab
62
5
10
146.15
20
-128.55
11
146.15
21
-126.95
0
LINE
8
FFab
62
5
10
146.15
20
-126.95
11
146.95
21
-126.95
0
LINE
8
FFab
62
5
10
146.95
20
-126.95
11
146.95
21
-128.55
0
LINE
8
FCrtYd
62
7
10
103.7
20
-38.9
11
174.5
21
-38.9
0
LINE
8
FCrtYd
62
7
10
174.5
20
-38.9
11
174.5
21
-109.7
0
LINE
8
FCrtYd
62
7
10
174.5
20
-109.7
11
103.7
21
-109.7
0
LINE
8
FCrtYd
62
7
10
103.7
20
-109.7
11
103.7
21
-38.9
0
LINE
8
FFab
62
5
10
103.9
20
-109.5
11
174.3
21
-109.5
0
LINE
8
FFab
62
5
10
103.9
20
-39.1
11
103.9
21
-109.5
0
LINE
8
FFab
62
5
10
174.3
20
-39.1
11
103.9
21
-39.1
0
LINE
8
FFab
62
5
10
174.3
20
-109.5
11
174.3
21
-39.1
0
ENDSEC
0
EOF
